<svg contentScriptType="text/ecmascript" zoomAndPan="magnify" xmlns:xlink="http://www.w3.org/1999/xlink"
  contentStyleType="text/css"
  style="shape-rendering:geometricPrecision; text-rendering:geometricPrecision; image-rendering:optimizeQuality"
  version="1.0" width="7.86311in" xml:space="preserve" preserveAspectRatio="xMidYMid meet"
  viewBox="-4100.0 -200.0 8500.0 6364.32" height="5.69763in" xmlns="http://www.w3.org/2000/svg"
  xmlns:iveo="http://viewplus.com/iveo">
  <title>USA map</title>
  <path style="stroke-width: 20;stroke:#000000;fill:#CCFFCC;"
    d="M-3087 435l-24 -17 -8 -1 -4 -2 0 -6 7 -21 3 -10 0 -8 0 -6 5 -2 3 2 2 12 -2 7 -2 5 2 5 16 -15 -2 -6 0 -8 7 -9 -5 -10 -10 -3 -1 -27 5 -2 9 2 3 -3 18 -5 -14 -11 0 -3 -3 -3 -13 8 0 -19 0 -13 4 -20 -2 -17 -1 -15 3 -38 4 -14 -16 -49 1 -33 5 -18 5 -26 89 62 45 25 35 10 20 14 19 0 8 4 6 10 4 44 -3 9 -15 10 -6 19 0 16 2 7 -1 9 -4 7 0 8 8 7 17 -10 10 -38 9 -8 6 -19 23 -23 1 -8 -10 -36 -18 -49 -1 -8 6 -2 10 2 11 -22 -3 -24 -13 -2 -3 -16 -1 -32 187 51 177 45 290 68 2 0 -99 446 -1 2 -4 4 -2 8 2 7 3 7 5 8 -1 6 -2 3 -6 8 0 12 2 10 -247 -57 -19 6 -12 0 -13 -4 -16 0 -9 -5 -14 0 -14 5 -18 -5 -15 0 -18 9 -14 3 -30 -4 -8 -5 -19 -9 -56 8 -11 -15 -47 -14 -23 -4 -29 4 -43 -4 -35 -17 -7 -15 2 -44 4 -10 -5 -25 -27 -21 -20 -2 -2 -7 -11 -11 -23 -9z">
    <title>Washington</title>
  </path>
  <path style="stroke-width: 20;fill:#FFCC99;stroke:#000000;"
    d="M-3361 1144l-7 -9 -9 -36 8 -18 0 -16 11 -27 -6 -56 9 -12 11 -6 7 -10 7 -17 6 -7 4 -25 5 -2 33 -39 17 -38 29 -55 33 -97 22 -42 21 -61 25 -77 10 -25 5 -24 -1 -8 12 -3 15 3 7 -2 23 9 11 11 2 7 20 2 27 21 5 25 -4 10 -2 44 7 15 35 17 43 4 29 -4 23 4 47 14 11 15 56 -8 19 9 8 5 30 4 14 -3 18 -9 15 0 18 5 14 -5 14 0 9 5 16 0 13 4 12 0 19 -6 247 57 2 16 12 17 12 3 13 11 3 24 -60 94 -11 11 -2 12 -13 14 -19 9 -31 48 -6 22 5 11 19 9 8 14 -4 10 -2 6 -5 2 0 21 -18 22 -70 315 -379 -90 -527 -144z">
    <title>Oregon</title>
    <desc>Oregon, nicknamed the Beaver State, became the thirty-third state in the US in 1859. It is the tenth largest
      state.
      The capital of Oregon is Salem. The accessible IVEO viewer is being developed at ViewPlus Technologies in
      Corvallis,
      which is about 45 minutes south of Salem.</desc>
  </path>
  <path style="stroke-width: 20;fill:#CCFFFF;stroke:#000000;"
    d="M-2490 3058l-342 -34 -3 -6 -3 -17 2 -8 4 -3 -4 -4 -4 -1 -4 -14 1 -6 -2 -58 -29 -62 -18 -17 -13 -25 -35 -31 -21 2 -12 -13 8 -17 -6 -10 1 -11 -12 -13 -36 -5 -19 -8 -26 -22 -15 -38 -21 -18 -24 -6 -63 -29 -21 0 -27 -16 -16 -16 0 -15 10 -11 5 -31 5 -19 4 -9 -6 -23 -16 -8 -2 -19 4 -5 4 -1 2 -17 -18 -14 -42 -76 -2 -21 -8 -18 -3 -15 -31 -44 3 -45 8 -10 8 -1 16 -17 2 -30 -10 -10 -22 -10 -22 -20 -8 -21 0 -59 5 -8 -3 -15 7 -3 3 -29 7 -1 6 9 -1 23 4 8 20 14 5 -6 2 -15 -11 -32 -3 -20 3 -24 -4 -3 -15 16 -1 9 -5 10 -19 -8 -20 -29 -20 -9 0 0 8 -19 0 -65 -26 -29 -12 -24 -20 -54 11 -18 -5 -17 -2 -14 11 -39 13 -18 2 -10 -3 -38 -16 -36 -1 -10 -5 -11 -8 -9 -6 -16 -2 -23 3 -6 -1 -18 18 -29 50 -55 1 -12 3 -21 11 -10 12 -22 5 -48 -11 -22 11 -24 7 -9 527 144 -134 524 581 855 0 25 2 9 -2 7 11 22 0 17 6 13 5 21 8 5 9 11 2 17 -2 5 -6 -4 -17 15 -21 8 -16 20 -11 48 -28 36 -15 0 -1 10 4 13 -2 10 -6 22 4 10 20 17 4 8 -6 8 -3 11 -12 13 -7 -3 -23 -3z">
    <title>California</title>
  </path>
  <path style="fill-opacity:0.42;stroke-width: 20;stroke:#000000;fill:#CCFFFF;"
    d="M-2455 1378l70 -315 18 -22 0 -21 5 -2 2 -6 4 -10 -8 -14 -19 -9 -5 -11 6 -22 31 -48 19 -9 13 -14 2 -12 11 -11 60 -94 -3 -24 -13 -11 -12 -3 -12 -17 -2 -16 -2 -22 6 -8 3 -9 -8 -15 0 -15 5 -6 99 -446 -2 0 112 28 -30 170 20 46 6 30 -6 17 -8 8 10 10 13 20 31 29 21 47 4 22 10 22 18 1 2 15 27 4 8 10 -28 56 2 10 -10 8 -2 28 3 3 -2 15 -19 14 0 16 1 9 -7 15 25 24 8 -2 37 -30 5 -3 5 3 5 13 5 3 7 7 -4 21 0 36 8 23 15 20 -1 12 -9 15 14 23 15 0 13 16 3 11 -5 24 0 6 10 19 16 10 8 -17 9 -5 27 10 12 3 12 -12 9 -1 7 7 34 2 15 8 6 -4 36 1 -2 -14 16 -12 18 17 5 22 12 12 0 0 -64 439 -1 0 -390 -69 -385 -79z">
    <title>Idaho</title>
  </path>
  <path style="stroke-width: 20;stroke:#000000;fill:#CCCCFF;"
    d="M-726 1106l-877 -108 -12 89 0 0 -12 -12 -5 -22 -18 -17 -16 12 2 14 -36 -1 -6 4 -15 -8 -34 -2 -7 -7 -9 1 -12 12 -12 -3 -27 -10 -9 5 -8 17 -16 -10 -10 -19 0 -6 5 -24 -3 -11 -13 -16 -15 0 -14 -23 9 -15 1 -12 -15 -20 -8 -23 0 -36 4 -21 -7 -7 -5 -3 -5 -13 -5 -3 -5 3 -37 30 -8 2 -25 -24 7 -15 -1 -9 0 -16 19 -14 2 -15 -3 -3 2 -28 10 -8 -2 -10 28 -56 -8 -10 -27 -4 -2 -15 -18 -1 -10 -22 -4 -22 -21 -47 -31 -29 -13 -20 -10 -10 8 -8 6 -17 -6 -30 -20 -46 30 -170 132 23 352 60 361 61 563 58 -44 537 -15 173z">
    <title>Montana</title>
  </path>
  <path style="stroke-width: 20;stroke:#000000;fill:#FFFF99;"
    d="M-786 1811l30 -355 30 -350 -877 -108 -12 89 -64 439 -1 0 -27 172 261 41 660 72 0 0z">
    <title>Wyoming</title>
  </path>
  <path style="stroke-width: 20;fill:#FFFFCC;stroke:#000000;"
    d="M-2834 1288l-134 524 581 855 0 -9 7 -13 10 -36 -6 -14 9 -83 -7 -33 7 -9 21 -4 28 6 10 13 -1 5 10 11 16 0 26 -74 17 -93 170 -877 -385 -79 -379 -90z">
    <title>Nevada</title>
  </path>
  <path style="stroke-width: 20;fill:#FFCCCC;stroke:#000000;"
    d="M-1684 3445l141 -1001 -697 -109 0 -1 -17 93 -26 74 -16 0 -10 -11 1 -5 -10 -13 -28 -6 -21 4 -7 9 7 33 -9 83 6 14 -10 36 -7 13 0 9 0 25 2 9 -2 7 11 22 0 17 6 13 5 21 8 5 9 11 2 17 -2 5 -6 -4 -17 15 -21 8 -16 20 -11 48 -28 36 -15 0 -1 10 4 13 -2 10 -6 22 4 10 20 17 4 8 -6 8 -3 11 -12 13 -7 -3 -23 -3 -11 42 515 298 302 48 0 -1z">
    <title>Arizona</title>
  </path>
  <path style="stroke-width: 20;fill:#CCFFFF;stroke:#000000;"
    d="M-1543 2444l97 -705 660 72 265 22 -10 178 -31 536 -137 -8 -844 -95z">
    <title>Colorado</title>
  </path>
  <path style="stroke-width: 20;fill:#FFCCFF;stroke:#000000;"
    d="M-1543 2444l-141 1001 0 1 129 15 10 -79 244 31 -2 -3 -7 -14 7 -10 -2 -4 -5 -5 4 -3 530 51 64 -800 8 0 5 -86 -844 -95z">
    <title>New Mexico</title>
  </path>
  <path style="stroke-width: 20;stroke:#000000;fill:#CCFFCC;"
    d="M-711 933l44 -537 407 29 399 11 1 13 13 43 -5 12 -4 30 2 50 11 57 15 16 10 51 3 89 4 18 0 32 3 12 21 65 -3 23 1 27 -922 -41z">
    <title>North Dakota</title>
    <desc />
  </path>
  <path style="stroke-width: 20;fill:#CCFFFF;stroke:#000000;"
    d="M-756 1456l30 -350 15 -173 922 41 1 15 -8 17 -23 23 2 17 45 41 0 324 -8 -1 -11 2 6 11 5 10 -7 18 9 9 6 26 -11 9 3 16 -12 31 12 33 4 17 -1 5 -27 -19 -57 -37 -14 -5 -24 0 -18 14 -19 5 -19 -5 -9 -24 -15 -9 -18 5 -24 0 -19 -28 -716 -38z">
    <title>South Dakota</title>
    <desc />
  </path>
  <path style="stroke-width: 20;stroke:#000000;fill:#FFCCCC;"
    d="M-786 1811l30 -355 716 38 19 28 24 0 18 -5 15 9 9 24 19 5 19 -5 18 -14 24 0 14 5 57 37 27 19 1 19 19 10 0 13 -9 24 14 14 9 28 14 15 -4 14 4 14 20 14 4 15 -4 14 -5 28 18 9 5 14 -9 14 4 15 10 13 -5 15 5 18 5 8 9 16 15 14 4 24 19 24 9 4 -4 20 2 5 -904 -21 10 -178 -265 -22 0 0z">
    <title>Nebraska</title>
  </path>
  <path style="stroke-width: 20;stroke:#000000;fill:#CCFFCC;"
    d="M-531 2011l904 21 58 44 -17 22 -4 21 9 13 15 6 8 31 15 9 13 4 6 3 4 384 -1042 -22 31 -536z">
    <title>Kansas</title>
  </path>
  <path style="stroke-width: 20;fill:#CCCCFF;stroke:#000000;"
    d="M480 2569l-1042 -22 -137 -8 -5 86 423 25 -11 343 15 2 8 6 20 28 10 3 30 -2 9 -9 16 9 6 9 -1 7 7 14 4 2 39 7 15 7 8 0 3 -3 11 -2 8 13 16 8 10 -12 36 4 2 7 15 14 6 3 0 18 28 6 5 -19 11 -3 36 25 5 0 16 -10 11 0 3 7 -4 14 6 11 10 -7 -2 -9 11 -15 15 -8 4 0 3 12 16 6 7 -1 6 -7 11 1 2 3 -1 3 16 8 22 16 22 -19 10 -5 32 -3 25 -9 10 -2 13 0 31 5 22 -6 4 -4 70 37 13 3 6 7 7 2 4 -313 -26 -194 -1 -89z">
    <title>Oklahoma</title>
  </path>
  <path style="stroke-width: 20;fill:#FFCCCC;stroke:#000000;"
    d="M503 3165l-7 -2 -6 -7 -13 -3 -70 -37 -4 4 -22 6 -31 -5 -13 0 -10 2 -25 9 -32 3 -10 5 -22 19 -22 -16 -16 -8 1 -3 -2 -3 -11 -1 -6 7 -7 1 -16 -6 -3 -12 -4 0 -15 8 -11 15 2 9 -10 7 -6 -11 4 -14 -3 -7 -11 0 -16 10 -5 0 -36 -25 -11 3 -5 19 -28 -6 0 -18 -6 -3 -15 -14 -2 -7 -36 -4 -10 12 -16 -8 -8 -13 -11 2 -3 3 -8 0 -15 -7 -39 -7 -4 -2 -7 -14 1 -7 -6 -9 -16 -9 -9 9 -30 2 -10 -3 -20 -28 -8 -6 -15 -2 11 -343 -423 -25 -8 0 -64 800 -530 -51 -4 3 5 5 2 4 -7 10 7 14 2 3 28 18 6 19 12 24 28 18 81 98 70 56 4 10 5 12 -1 16 5 8 16 25 -1 55 4 20 25 39 102 76 72 44 20 3 13 -7 16 -20 12 -9 30 -70 15 -21 11 -7 24 7 6 -1 5 -11 7 -8 13 5 12 8 41 6 10 5 27 8 13 -6 31 19 7 17 6 2 3 8 5 2 14 8 19 26 29 25 16 24 1 10 47 112 7 20 50 58 4 13 34 37 10 7 14 16 4 10 -3 37 11 14 4 42 12 13 35 69 4 21 24 1 28 18 33 11 49 31 69 6 12 3 36 24 20 8 16 -21 16 3 3 -4 0 -10 -14 -6 2 -5 -15 -19 -22 -83 -11 -33 17 -50 -2 -16 -6 -3 -4 -1 -2 -4 0 -3 4 -3 21 -15 14 -46 -11 -3 -5 -23 12 -13 15 11 25 -17 6 -26 -12 -8 6 -11 6 1 7 2 5 -6 8 4 9 0 6 -4 1 -4 0 -19 4 -7 6 -1 4 3 6 1 37 -8 5 -4 1 -5 -3 -3 -20 -13 0 -8 36 -10 5 -6 11 -4 2 4 -4 4 5 9 5 0 7 -5 54 -17 90 -59 4 -22 43 -35 1 -6 -17 -25 3 -20 27 -12 6 1 -4 21 3 8 33 -4 4 8 65 -28 37 -3 2 -1 -3 -4 -6 -7 -4 -12 5 -5 4 -11 11 -13 13 -39 -9 -15 0 -13 2 -8 -1 -11 5 -21 11 -10 6 -17 6 -32 0 -19 -6 -28 -11 -18 -5 -5 1 -11 -5 -7 -7 -16 -11 -8 -3 -6 7 -18 -13 -27 -22 -19 -6 -11 -4 -178 -1 -94 -22 -5 -19 8 -6 -2 -22 -16z">
    <title>Texas</title>
  </path>
  <path style="fill-opacity:0.42;stroke-width: 20;fill:#FFCC33;stroke:#000000;"
    d="M228 1411l0 -324 -45 -41 -2 -17 23 -23 8 -17 -1 -15 -1 -27 3 -23 -21 -65 -3 -12 0 -32 -4 -18 -3 -89 -10 -51 -15 -16 -11 -57 -2 -50 4 -30 5 -12 -13 -43 -1 -13 240 0 1 -41 3 -25 19 1 24 10 2 39 8 26 -2 24 26 19 10 -3 18 3 10 9 19 -1 23 2 5 10 0 6 35 -2 11 -12 51 -4 33 11 8 0 -4 9 10 8 5 -1 6 6 6 23 13 7 13 -17 8 -5 13 5 9 16 27 7 8 11 13 10 18 1 18 -5 46 -31 7 5 12 14 69 -1 11 2 10 5 17 14 14 -8 32 -1 -18 16 -41 23 -22 7 -16 7 -18 17 -35 16 -16 12 -58 64 -85 77 -8 13 -9 7 3 96 -9 11 -12 5 -36 29 -1 16 -5 4 -9 27 19 10 12 22 -11 20 3 17 -4 31 0 46 7 10 14 11 4 7 31 5 6 4 2 9 8 5 38 18 14 27 35 26 40 28 4 10 0 22 4 33 -667 21z">
    <title>Minnesota</title>
  </path>
  <path style="fill-opacity:0.42;stroke-width: 20;fill:#66CC00;stroke:#000000;"
    d="M228 1411l667 -21 8 21 14 14 -1 11 -10 16 7 23 12 48 40 15 13 11 5 16 5 10 27 19 4 16 24 15 10 30 -1 15 -10 19 -8 8 -1 16 -23 26 -22 7 -6 7 -27 1 -13 8 -10 18 3 16 16 16 5 11 -5 27 -20 44 -20 12 -7 14 2 15 -10 14 -41 -40 -536 16 -5 -8 -5 -18 5 -15 -10 -13 -4 -15 9 -14 -5 -14 -18 -9 5 -28 4 -14 -4 -15 -20 -14 -4 -14 4 -14 -14 -15 -9 -28 -14 -14 9 -24 0 -13 -19 -10 -1 -19 1 -5 -4 -17 -12 -33 12 -31 -3 -16 11 -9 -6 -26 -9 -9 7 -18 -5 -10 -6 -11 11 -2 8 1z">
    <title>Iowa</title>
  </path>
  <path style="fill-opacity:0.42;stroke-width: 20;stroke:#000000;fill:#CCFFFF;"
    d="M481 2658l631 -28 -3 8 13 9 6 16 -3 13 -19 15 -17 20 -2 12 95 -6 8 -26 -3 -10 8 -30 10 -25 8 -15 19 -6 7 2 8 -4 14 -45 -4 -17 -9 -5 -4 -2 -2 -4 -3 -4 -10 0 -1 8 -5 2 -30 -48 2 -7 10 -11 1 -7 -13 -16 -8 -30 -39 -35 -20 -7 -39 -24 -23 -23 -10 -20 6 -11 25 -30 -4 -25 8 -22 -5 -10 -34 -18 -10 6 -14 13 -7 -6 -23 -65 -11 -10 -40 -31 -41 -48 -1 -12 -12 -31 -2 -33 7 -18 0 -8 -41 -40 -536 16 9 16 15 14 4 24 19 24 9 4 -4 20 2 5 58 44 -17 22 -4 21 9 13 15 6 8 31 15 9 13 4 6 3 4 384 1 89z">
    <title>Missouri</title>
  </path>
  <path style="stroke-width: 20;stroke:#000000;fill:#CCFFFF;"
    d="M573 3274l428 -12 -2 16 20 34 1 34 10 19 10 9 1 16 -20 11 -5 7 -9 37 -27 43 -25 75 -2 54 277 -12 7 9 -8 27 1 40 30 28 6 35 -41 -8 -35 -17 -9 -3 -11 6 -25 25 -2 12 11 13 14 4 30 -2 17 -11 10 -7 19 1 9 -1 1 5 -4 8 -12 10 3 10 11 7 9 2 8 -6 12 -22 29 -12 11 -6 8 0 7 9 -5 13 5 6 -2 12 -14 8 -22 30 -23 16 -1 16 7 13 31 18 52 22 7 9 -5 12 -10 3 -41 17 -5 -33 -23 -10 -45 -18 -6 -15 -9 -6 -12 6 -7 32 5 4 0 7 -23 16 -9 -1 -12 -19 -8 -1 -15 6 -8 -8 -6 2 -21 22 -24 2 -8 -7 -25 -4 -36 -47 -22 -4 -21 -9 -8 -13 -4 -2 -4 -1 -1 -4 1 -8 -9 -3 -7 3 -16 -3 -2 -3 -4 -11 -10 1 -29 26 14 16 -5 3 -46 3 -80 -15 -45 -17 -105 16 -6 -7 -4 -12 5 -5 4 -11 11 -13 13 -39 -9 -15 0 -13 2 -8 -1 -11 5 -21 11 -10 6 -17 6 -32 0 -19 -6 -28 -11 -18 -5 -5 1 -11 -5 -7 -7 -16 -11 -8 -3 -6 7 -18 -13 -27 -22 -19 -6 -11 -4 -178z">
    <title>Louisiana</title>
  </path>
  <path style="stroke-width: 20;stroke:#000000;fill:#CCCCFF;"
    d="M983 1565l-5 -16 -13 -11 -40 -15 -12 -48 -7 -23 10 -16 1 -11 -14 -14 -8 -21 -4 -33 0 -22 -4 -10 -40 -28 -35 -26 -14 -27 -38 -18 -8 -5 -2 -9 -6 -4 -31 -5 -4 -7 -14 -11 -7 -10 0 -46 4 -31 -3 -17 11 -20 -12 -22 -19 -10 9 -27 5 -4 1 -16 36 -29 12 -5 9 -11 -3 -96 9 -7 8 -13 14 7 16 3 22 -2 33 -20 62 -31 11 -2 5 6 0 14 -6 10 -1 8 -7 24 24 -11 13 0 14 14 14 -2 7 9 18 3 9 7 5 20 9 5 116 23 14 0 25 21 17 -1 4 7 7 -5 9 -1 28 5 18 6 8 7 -4 5 -1 6 19 5 23 11 3 17 -7 43 5 2 20 -4 4 2 -2 10 -8 8 6 19 19 12 -4 3 -26 27 -15 34 -7 23 -2 10 6 5 18 -10 21 -39 22 -18 11 -5 4 -10 10 -9 4 -11 -1 -13 3 -10 5 -5 5 -10 6 -5 7 -1 3 8 -2 20 -18 46 -9 11 -5 15 1 10 -16 37 0 32 -2 23 -16 17 -4 10 5 25 1 43 -6 9 -14 44 8 66 19 44 -5 8 3 9 -2 8 2 19 -367 24z">
    <title>Wisconsin</title>
  </path>
  <path style="stroke-width: 20;stroke:#000000;fill:#FFCCCC;"
    d="M1350 1541l-367 24 5 10 27 19 4 16 24 15 10 30 -1 15 -10 19 -8 8 -1 16 -23 26 -22 7 -6 7 -27 1 -13 8 -10 18 3 16 16 16 5 11 -5 27 -20 44 -20 12 -7 14 2 15 -10 14 0 8 -7 18 2 33 12 31 1 12 41 48 40 31 11 10 23 65 7 6 14 -13 10 -6 34 18 5 10 -8 22 4 25 -25 30 -6 11 10 20 23 23 39 24 20 7 39 35 8 30 13 16 -1 7 -10 11 -2 7 30 48 5 -2 1 -8 10 0 3 4 8 -30 18 -9 23 4 17 9 17 12 19 -8 -8 -36 -2 -20 12 -6 43 -12 3 -4 -13 -17 -2 -6 5 -4 3 -14 6 -8 -3 -4 -1 -6 0 -8 8 -31 0 -27 21 -20 13 -29 1 -11 19 -35 -5 -38 -16 -32 4 -22 -2 -15 6 -8 -36 -420 -7 -5 -5 -10 -8 -38 -6 -12 -12 -12 -12 -25 0 -32z">
    <title>Illinois</title>
  </path>
  <g style="stroke-width: 20;fill:#CCCCCC;stroke:#000000;">
    <title>Michigan</title>
    <desc>Michigan consists of two parts</desc>
    <path style="stroke-width: 20;fill:#FFFFCC;stroke:#000000;"
      d="M1484 1663l273 -33 1 8 172 -24 2 -8 20 -41 8 -11 -1 -27 8 -24 22 -17 0 -23 3 -5 2 -12 12 -11 6 12 4 1 8 -4 4 -7 2 -12 -4 -23 4 -31 -9 -20 -5 -43 -40 -100 -38 -12 -15 10 -18 17 -46 68 -6 0 -2 -3 -19 -7 -6 -6 -6 -15 5 -28 9 -12 22 -14 6 -12 0 -10 4 -12 10 -7 10 -21 0 -44 -6 -23 -7 -12 -14 -17 -5 -8 3 -11 16 -5 2 -5 -18 -33 -15 -7 -45 -18 -34 -7 -11 -12 -27 -7 -24 -7 -19 -14 -10 11 -14 5 -14 24 -1 21 3 7 6 2 2 7 -5 3 -11 4 -8 6 -11 14 -8 17 2 19 4 19 -11 21 -16 7 -3 -15 7 -17 -7 -19 4 -9 -4 -4 -6 4 -8 12 -3 19 -6 9 -9 0 -16 14 -7 13 -1 9 -15 17 -1 28 -1 31 -3 19 -11 24 -9 14 1 14 13 40 -7 24 9 19 26 53 18 43 0 36 8 8 0 6 -5 6 -5 37 -6 27 -11 26 -22 51 -19 17 -7 6z">
      <title>Michigan</title>
      <desc>East part of Michigan</desc>
    </path>
    <path style="stroke-width: 20;fill:#FFCCCC;stroke:#000000;"
      d="M969 839l26 -8 12 -9 26 -15 6 -13 11 -2 48 -17 32 -18 40 -40 12 -4 33 -36 22 -11 37 -6 9 3 2 4 -20 13 -6 2 -8 16 -26 30 -12 11 -7 8 -6 27 5 17 4 -11 23 -17 15 0 10 -4 49 22 38 43 30 -5 16 2 11 6 10 1 4 -2 10 4 1 5 6 -4 8 -12 33 -24 111 -29 30 -17 13 -3 6 6 -9 15 0 10 14 26 8 4 6 -4 18 1 9 -5 35 -3 15 10 14 28 11 11 28 12 27 -7 9 1 7 5 0 11 -11 11 -18 1 -10 -2 -2 -5 -6 0 -17 9 -13 -4 -11 -1 -31 6 -18 -5 -7 5 5 17 -5 6 -7 -3 -20 -16 -46 -6 -9 2 -12 -4 -31 23 -7 0 -12 6 -5 7 -6 1 -18 -3 -19 5 -2 14 -4 9 -39 35 -7 -3 -3 -5 17 -22 -2 -11 -21 0 -8 20 -8 10 -9 -11 -4 -18 -3 2 -4 25 -15 24 -8 26 -8 16 -19 27 0 19 -2 7 -19 -12 -6 -19 8 -8 2 -10 -4 -2 -20 4 -5 -2 7 -43 -3 -17 -23 -11 -19 -5 1 -6 4 -5 -8 -7 -18 -6 -28 -5 -9 1 -7 5 -4 -7 -17 1 -25 -21 -14 0 -116 -23 -9 -5 -5 -20 -9 -7 -18 -3 -7 -9z">
      <title>Michigan</title>
      <desc>North-west part of Michigan</desc>
    </path>
  </g>
  <path style="stroke-width: 20;stroke:#000000;fill:#CCFFCC;"
    d="M1400 1675l36 420 -6 8 2 15 -4 22 16 32 5 38 -19 35 -1 11 -13 29 -21 20 0 27 -8 31 0 8 1 6 1 0 11 3 11 -5 -2 -4 5 -14 26 2 33 -13 42 19 4 5 8 -3 8 -27 24 -10 9 15 15 8 11 -9 10 -36 10 -12 9 1 16 19 35 -2 8 -31 56 -73 0 -27 12 -6 23 3 18 -14 16 -4 6 -11 -9 -31 1 -9 4 -13 -51 -460 -1 -8 -273 33 -8 7 -20 8 -12 7 -25 4 -19 -14z">
    <title>Indiana</title>
  </path>
  <path style="stroke-width: 20;stroke:#000000;fill:#FFCCFF;"
    d="M1205 2626l207 -17 -1 -17 -5 -10 23 -3 9 6 584 -53 11 -9 10 -8 49 -25 8 -13 27 -19 1 -13 3 -6 15 -7 1 -16 14 -14 72 -62 5 -13 -10 0 -9 -6 -5 -2 -3 -5 -16 -6 -5 1 -5 -3 -18 -28 -29 -36 -3 -12 1 -11 0 -15 -3 -22 -6 -7 -15 -11 -16 -3 -13 -21 -7 -10 -18 12 -3 8 -11 4 -3 5 -20 3 -25 -11 -10 3 -11 15 -29 -21 -28 3 -21 -9 -11 -25 -28 -21 -14 10 -9 0 -13 -9 -13 1 -4 13 -1 9 9 31 -6 11 -16 4 -18 14 -23 -3 -12 6 0 27 -56 73 -8 31 -35 2 -16 -19 -9 -1 -10 12 -10 36 -11 9 -15 -8 -9 -15 -24 10 -8 27 -8 3 -4 -5 -42 -19 -33 13 -26 -2 -5 14 2 4 -11 5 -11 -3 -1 0 3 4 -6 8 -3 14 -5 4 2 6 13 17 -3 4 -43 12 -12 6 2 20 8 36 -19 8 -17 -12 -17 -9 -23 -4 -18 9 -8 30 2 4 4 2 9 5 4 17 -14 45 -8 4 -7 -2 -19 6 -8 15z">
    <title>Kentucky</title>
  </path>
  <path style="fill-opacity:0.50;stroke-width: 20;fill:#99CC00;stroke:#000000;"
    d="M2267 2495l-234 28 -11 9 -584 53 -9 -6 -23 3 5 10 1 17 -207 17 -10 25 -8 30 3 10 -8 26 -4 8 3 9 -7 15 -17 18 -7 38 -19 23 4 24 -1 32 -5 1 -16 15 298 -22 371 -32 144 -17 4 -42 13 1 6 -2 11 -10 1 -11 -1 -9 4 -10 11 -13 30 -12 33 -9 34 -29 12 -5 21 -19 4 -17 4 -2 8 1 6 -7 2 -5 12 -11 4 1 9 7 11 -7 2 -6 17 -14 12 -4 23 -2 24 -39 19 -13 1 -11 4 -11 -3 -13 3 -11z">
    <title>Tennessee</title>
  </path>
  <path style="stroke-width: 20;fill:#FFCC99;stroke:#000000;"
    d="M1411 2878l-298 22 -2 10 -27 24 -10 27 2 28 -4 16 -26 16 -17 27 -8 8 0 22 -13 16 0 18 -9 23 -14 25 6 26 13 14 2 18 5 5 0 8 -8 6 -4 16 2 9 -2 16 20 34 1 34 10 19 10 9 1 16 -20 11 -5 7 -9 37 -27 43 -25 75 -2 54 277 -12 7 9 -8 27 1 40 30 28 6 35 20 0 29 -24 69 -21 15 5 25 -8 4 7 15 5 5 -4 -31 -264 -3 -24 10 -521 -13 -17z">
    <title>Mississippi</title>
  </path>
  <path style="fill-opacity:0.30;stroke-width: 20;stroke:#000000;fill:#00CC99;"
    d="M1411 2878l13 17 -10 521 3 24 31 264 7 -5 9 -6 23 8 5 -10 5 -39 10 -26 14 26 -2 10 8 21 17 25 15 0 12 0 19 -20 3 -1 9 -8 0 -3 -3 -5 -8 -4 0 -5 7 -15 -3 -7 -11 -8 -5 -1 -7 -7 -12 -17 -1 -13 4 -4 -1 -4 0 -8 390 -38 -1 -11 -18 -28 2 -46 -17 -38 -3 -31 10 -22 0 -24 13 -19 2 -5 -13 -15 5 -16 -9 -10 -14 -8 -5 -12 -8 -27 -10 -9 -104 -373 -371 32z">
    <title>Alabama</title>
  </path>
  <path style="fill-opacity:0.50;stroke-width: 20;fill:#FFCC66;stroke:#000000;"
    d="M1758 1638l51 460 13 -1 13 9 9 0 14 -10 28 21 11 25 21 9 28 -3 29 21 11 -15 10 -3 25 11 20 -3 3 -5 11 -4 3 -8 18 -12 7 10 13 21 16 3 15 11 6 7 18 -2 13 -24 10 -7 1 -19 -1 -21 13 -42 11 0 13 21 15 -19 -5 -20 14 -31 12 -11 1 -8 11 -12 11 3 16 -5 2 -6 26 -30 7 -3 14 -14 -1 -21 -4 -10 0 -13 7 -16 9 -64 -25 -12 19 -17 -6 -18 9 -8 3 2 -40 -235 -67 34 -28 19 -13 9 -39 42 -12 6 -10 -1 -22 0 -12 4 -32 26 -12 -2 -26 -8 -8 4 -8 -3 7 -11 -6 -2 -19 -3 -42 -13 -8 -3 -19 5 0 -9 -172 24z">
    <title>Ohio</title>
  </path>
  <path style="stroke-width: 20;stroke:#000000;fill:#CCFFFF;"
    d="M3082 1475l116 40 7 19 -8 8 -6 8 -3 12 1 18 -6 2 -6 4 -10 23 0 8 3 1 6 -4 2 -5 18 -18 11 3 25 -1 8 -7 24 -6 20 -8 13 -8 15 -14 64 -44 17 -11 14 -12 11 -4 8 -8 13 -8 8 -6 7 -16 1 -4 -1 -3 -15 13 -15 5 -17 6 -8 9 -6 11 -15 8 -3 -6 5 -10 11 -13 13 -22 -5 -3 -11 11 -6 11 -10 10 -36 20 -45 22 -38 19 -14 8 -15 19 -8 -6 -2 -14 6 -17 12 -9 -14 -15 20 -22 2 -8 -9 -11 -17 -131 -5 -6 1 -121 -14 -29 -10 -29 0 -25 -8 -44 -13 -22 -8 2 1 4 -3 2 -5 -8 3 -23 -22 -50 -2 -19 9 -19 -7 -36 -20 -52 -1 -6 -6 -7 3 -8 -9 -19 0 0 -168 43 -2 -5 -6 1 -14 8 -40 42 -40 55 -6 10 3 9 -6 20 -9 10 -42 41 -4 8 7 17 3 3 10 -2 10 6 1 9 -8 8 4 14 10 17 -2 24 -27 11 -39 43 -30 9 -66 19 -23 -9 -19 -3 -35 3 -37 8 -39 16 -18 11 -7 22 0 14 31 34 3 14 -4 11 -11 6 -9 27 -55 53 -20 16 10 46 569 -114 9 7 4 10 4 5 5 -1 5 5 10 2 17 33 2 13 7 5 1 5 34 3 11 9z">
    <title>New York</title>
  </path>
  <path style="stroke-width: 20;fill:#FFCCCC;stroke:#000000;"
    d="M2511 1884l371 -72 118 -21 2 -2 4 -2 1 -11 14 -12 14 -2 11 3 35 -24 4 -19 22 -21 21 -13 1 -5 -19 -14 -8 -8 -9 -4 -5 -6 -15 -4 -6 -21 -17 -3 -3 -2 -2 -32 9 -5 -2 -19 -11 -10 0 -6 4 -5 16 -16 5 -26 0 -8 10 -15 6 -4 -11 -9 -34 -3 -1 -5 -7 -5 -2 -13 -17 -33 -10 -2 -5 -5 -5 1 -4 -5 -4 -10 -9 -7 -569 114 -10 -46 -31 30 -5 2 -5 -4 -3 0 -8 17 -26 22 -10 6 40 235 28 156 137 -27z">
    <title>Pensilvania</title>
  </path>
  <path style="stroke-width: 20;fill:#FFFF99;stroke:#000000;"
    d="M3090 2357l-353 67 -371 61 -8 -2 -15 3 -38 4 1 -6 -38 6 -1 5 -234 28 10 -8 49 -25 8 -13 27 -19 1 -13 3 -6 15 -7 1 -16 14 -14 72 -62 5 -13 5 3 -5 15 20 20 32 12 14 0 17 -12 1 -9 12 -7 11 10 6 3 11 -2 35 -14 5 -22 4 0 8 8 28 -26 11 5 23 -31 -7 -11 4 -21 23 -44 30 -116 6 -1 17 11 1 8 10 8 18 -4 11 -20 12 -44 10 -16 17 7 11 -26 10 -4 9 -13 10 -24 6 -5 2 -6 -6 -5 3 -35 3 -7 6 -3 63 40 10 3 3 -2 6 -34 11 -2 12 5 14 5 -9 14 15 16 27 0 12 13 17 6 12 16 -2 7 -18 32 -10 27 3 19 20 1 18 -11 15 16 9 5 6 3 10 8 7 2 9 -5 5 1 32 17 23 6 12 15 -2 6 -8 7 4 22 -4 5 -6 5 0 1 24 12 7 17 0 7 -4 6 -19 -4 -3 8 7 8 4 -1 0 7 -12 4 -4 0 -2 4 7 5 15 3 16 6 5 7 -17 18 -8 0 -20 -8 0 8 12 8 15 10 14 -5 15 -13 15 2 20 -2 3 4 16 49 -11 11 -4 0 1 8z">
    <title>Virginia</title>
  </path>
  <path style="stroke-width: 20;stroke:#000000;fill:#FFCCCC;"
    d="M1926 2829l4 -42 13 1 6 -2 11 -10 1 -11 -1 -9 4 -10 11 -13 30 -12 33 -9 34 -29 12 -5 21 -19 4 -17 4 -2 8 1 6 -7 2 -5 12 -11 4 1 9 7 11 -7 2 -6 17 -14 12 -4 23 -2 24 -39 19 -13 1 -11 4 -11 -3 -13 3 -11 1 -5 38 -6 -1 6 38 -4 15 -3 8 2 371 -61 353 -67 6 5 3 6 10 6 6 3 6 8 5 5 8 18 -3 5 2 1 -6 0 -2 -5 -10 3 -8 0 -7 -4 -5 2 4 6 -1 5 -33 15 -8 8 -12 12 -21 3 -5 13 0 5 4 2 9 -3 20 -10 23 -6 13 -8 21 0 2 4 -2 12 2 6 6 5 8 -4 3 -7 13 -16 10 0 8 17 2 29 4 8 -1 5 -18 14 -5 11 -2 8 -14 11 -10 4 -11 7 -24 -2 -7 -3 -3 3 -3 0 -4 -11 0 -5 -4 -4 -6 -2 -4 3 3 23 -3 6 -3 -3 7 11 10 0 10 11 -8 12 5 6 -27 34 -8 2 -15 -4 -10 0 -3 4 10 8 29 -3 19 -5 25 -13 4 -9 6 2 10 9 -9 22 -22 24 -24 5 -10 5 -29 3 -24 40 -10 3 -1 5 2 1 -28 18 -16 20 -15 34 -8 42 -6 10 -16 7 -57 10 -6 5 -190 -130 -160 20 -4 -22 -29 -23 -14 8 -5 -6 2 -7 -1 -4 -187 21 -6 -1 -3 6 -38 18 -1 8 -13 0 -42 21 -214 30z">
    <title>North Carolina</title>
  </path>
  <path style="stroke-width: 20;fill:#FFCCFF;stroke:#000000;"
    d="M2543 3269l-7 1 -20 -3 -7 -4 -4 -8 -9 -36 -19 -25 -21 -10 -11 -36 -15 -16 -6 -20 -13 -5 -25 -10 -16 -21 -16 -11 -1 -9 -8 -17 -7 -7 -24 -8 -45 -42 -21 -7 -5 -14 -20 -16 -12 -29 -16 -15 -4 -9 -30 -5 -39 -21 -11 -11 13 -29 10 -8 7 -11 1 -6 -2 -2 42 -21 13 0 1 -8 38 -18 3 -6 6 1 187 -21 1 4 -2 7 5 6 14 -8 29 23 4 22 160 -20 190 130 -7 6 -16 9 -13 18 -23 36 -6 14 -8 20 1 19 0 16 -5 6 -5 9 -11 1 -8 9 -9 9 -10 16 -7 14 -24 16 -13 20 -13 12 -17 12 -10 10 -9 8 -14 8 -9 2 -4 6 1 5 -2 3 -6 13 -12 11 -11 1 -3 3 -1 2 3 4 4 3 4 1 -2 7 -6 4 -13 13 -5 10 1 3z">
    <title>South Carolina</title>
  </path>
  <path style="stroke-width: 20;fill:#CCCCFF;stroke:#000000;"
    d="M1782 2846l104 373 10 9 8 27 5 12 14 8 9 10 -5 16 13 15 -2 5 -13 19 0 24 -10 22 3 31 17 38 -2 46 18 28 1 11 3 9 13 14 -1 11 10 14 405 -26 6 21 6 8 20 2 4 -21 -12 -39 2 -12 4 -8 12 -8 29 12 25 2 13 -3 -4 -30 -5 -15 0 -20 3 -13 21 -63 4 -25 9 -25 13 -26 13 -12 6 -4 2 -7 -9 -4 -1 -3 -7 1 -20 -3 -7 -4 -4 -8 -9 -36 -19 -25 -21 -10 -11 -36 -15 -16 -6 -20 -13 -5 -25 -10 -16 -21 -16 -11 -1 -9 -8 -17 -7 -7 -24 -8 -45 -42 -21 -7 -5 -14 -20 -16 -12 -29 -16 -15 -4 -9 -30 -5 -39 -21 -11 -11 13 -29 10 -8 7 -11 1 -6 -2 -2 -214 30 -144 17z">
    <title>Georgia</title>
  </path>
  <path style="stroke-width: 20;fill:#FFFFCC;stroke:#000000;"
    d="M1952 3540l-390 38 0 8 1 4 -4 4 1 13 12 17 7 7 5 1 11 8 3 7 -7 15 0 5 8 4 3 5 0 3 -9 8 1 11 3 2 23 -7 8 -5 7 -22 4 -6 9 3 8 0 4 -3 7 1 -1 6 -15 13 2 2 13 -6 19 -1 69 -23 11 0 0 5 -13 11 6 3 30 3 29 11 32 15 8 4 0 -11 6 -5 6 8 18 6 6 2 0 4 -7 3 3 6 40 30 2 10 -1 9 -4 6 -5 -4 -3 -8 -3 9 3 7 7 4 55 -16 3 -7 19 -2 44 -35 30 0 0 -7 -5 -8 9 -18 47 -7 69 36 3 10 18 14 14 24 44 31 7 13 12 11 34 0 25 37 9 7 -4 11 11 39 -5 43 -10 46 1 38 6 13 27 17 8 -15 -8 -7 -8 -24 2 -5 15 -3 11 24 6 -1 3 -12 5 -1 7 4 -1 12 -7 12 -8 11 -10 29 -7 4 -1 15 11 10 15 14 24 53 36 23 4 0 2 -13 12 0 8 21 1 13 13 29 15 9 16 4 28 76 8 4 36 8 16 8 42 52 18 13 7 1 10 5 3 11 -8 2 -7 -3 -5 0 -5 3 -1 7 6 7 21 5 10 -7 17 -2 62 -24 13 -24 1 -6 -8 -32 1 -18 12 -30 14 4 -16 -61 5 -31 -4 -57 -12 -46 -9 -16 -41 -56 -27 -63 -34 -44 1 -6 -2 -9 -11 -25 -1 -11 11 -16 1 -6 -44 -59 -24 -25 -17 -10 -3 -7 -29 -38 -37 -66 -10 -39 -23 -56 0 -8 -10 -8 -6 -4 -4 -40 -6 -13 -13 3 -25 -2 -29 -12 -12 8 -4 8 -2 12 12 39 -4 21 -20 -2 -6 -8 -6 -21 -405 26 -10 -14 1 -11 -13 -14 -3 -9z">
    <title>Florida</title>
  </path>
  <path style="stroke-width: 20;fill:#CCFFFF;stroke:#000000;"
    d="M3000 1791l-118 21 -371 72 21 91 6 -12 8 -4 28 -31 13 -4 9 -16 10 -5 8 -18 8 10 17 3 17 -6 4 -12 45 -15 10 5 10 2 13 -5 5 14 6 3 15 32 0 0 11 -2 12 5 14 5 -9 14 15 16 27 0 12 13 17 6 12 16 -2 7 -18 32 -10 27 3 19 20 1 18 -11 15 16 9 5 -1 -5 17 -3 23 1 29 9 12 7 7 -1 0 -6 -7 -7 -12 -21 -12 -3 -3 -3 3 -6 5 0 4 -6 -14 -6 -11 -18 -11 -31 -3 -11 -2 -18 5 -32 -1 -8 -5 -6 -2 -9 3 -6 4 -8 4 -11 24 -17 5 -6 7 -24 13 1 7 9 -12 20 -8 13 -9 11 -7 16 8 16 11 3 8 33 -2 5 -19 11 3 8 16 6 3 7 -3 14 3 8 0 9 7 20 20 15 10 0 6 -8 12 1 5 3 -2 10 10 19 1 8 6 11 17 0 2 1 11 -13 45 -15 1 -7 4 -11 12 -59 -2 -5 -90 18 -65 -217z">
    <title>Maryland</title>
  </path>
  <path style="stroke-width: 20;stroke:#000000;fill:#FFFFCC;"
    d="M3155 1990l-3 -17 -10 -25 -17 -16 -24 -17 -10 -11 -5 -12 -19 -32 -7 -15 -16 -18 -6 -11 -1 -11 0 -3 0 -5 9 -32 -11 -3 -14 2 -14 12 -1 11 -4 2 -2 2 65 217 90 -18z">
    <title>Delaware</title>
  </path>
  <path style="stroke-width: 20;fill:#CCFFCC;stroke:#000000;"
    d="M3046 1765l-9 32 0 5 6 -2 8 16 11 12 11 12 31 16 9 4 24 3 8 2 0 21 0 14 8 6 8 -10 10 -20 1 -19 14 -26 8 -19 21 -28 8 -22 8 -20 -1 -13 -4 -59 -5 -46 -9 -14 -20 5 -8 5 -6 -2 -2 -4 -6 4 -3 -1 0 -8 10 -23 6 -4 6 -2 -1 -18 3 -12 6 -8 8 -8 -7 -19 -116 -40 -6 4 -10 15 0 8 -5 26 -16 16 -4 5 0 6 11 10 2 19 -9 5 2 32 3 2 17 3 6 21 15 4 5 6 9 4 8 8 19 14 -1 5 -21 13 -22 21 -4 19 -35 24z">
    <title>New Jersey</title>
  </path>
  <path style="stroke-width: 20;fill:#FFCCCC;stroke:#000000;"
    d="M3214 1319l81 -21 8 10 2 -2 2 -6 120 -32 28 99 -4 9 -2 5 2 5 0 5 -15 2 -41 17 -11 -2 -3 5 -1 6 -3 3 -23 4 -34 15 -4 -6 -20 22 -46 39 -18 10 -14 -15 20 -22 2 -8 -9 -11 -17 -131z">
    <title>Connecticut</title>
  </path>
  <path style="stroke-width: 20;fill:#CCFFCC;stroke:#000000;"
    d="M3210 1192l95 -22 151 -34 2 -5 5 -3 3 3 3 -4 -3 -11 13 -4 11 -19 9 -2 9 5 6 21 17 13 5 7 -2 7 -8 5 -9 16 -6 19 1 11 19 -1 17 10 27 27 9 17 13 16 32 2 18 -8 10 -22 -6 -4 -12 -12 -16 -8 2 -8 12 1 5 1 22 30 12 30 -1 14 -13 -9 -15 11 -21 10 -24 20 -8 0 -3 -4 1 -8 -4 -15 -5 0 -13 22 -16 21 -4 4 -10 -12 -2 -4 -5 -1 -3 -4 -9 -6 -1 -5 -24 -7 -6 -17 -8 -4 -6 -16 -49 12 -120 32 -2 6 -2 2 -8 -10 -81 21 -5 -6 1 -121z">
    <title>Massachusetts</title>
  </path>
  <path style="stroke-width: 20;fill:#FFFFCC;stroke:#000000;"
    d="M3427 1268l28 99 -4 9 -2 5 2 5 0 5 7 1 25 -17 15 -13 0 -11 -4 -8 0 -16 11 -11 5 4 0 10 0 21 4 6 8 -1 0 -13 6 0 7 -7 13 -2 2 -2 -10 -12 -2 -4 -5 -1 -3 -4 -9 -6 -1 -5 -24 -7 -6 -17 -8 -4 -6 -16 -49 12z">
    <title>Rhode Island</title>
  </path>
  <path style="stroke-width: 20;fill:#CCCCFF;stroke:#000000;"
    d="M3098 804l9 19 -3 8 6 7 1 6 20 52 7 36 -9 19 2 19 22 50 -3 23 5 8 3 -2 -1 -4 8 -2 13 22 8 44 0 25 10 29 14 29 95 -22 -2 -8 -11 -11 1 -18 4 -7 -5 -16 -8 -72 0 -23 10 -41 6 -28 2 -20 -8 -16 0 -16 6 -10 28 -22 15 -40 -15 -23 -2 -11 5 -6 -1 -8 -7 -27 -225 57 0 0z">
    <title>Vermont</title>
  </path>
  <path style="stroke-width: 20;fill:#FFCCCC;stroke:#000000;"
    d="M3508 1096l-9 -5 -9 2 -11 19 -13 4 3 11 -3 4 -3 -3 -5 3 -2 5 -151 34 -2 -8 -11 -11 1 -18 4 -7 -5 -16 -8 -72 0 -23 10 -41 6 -28 2 -20 -8 -16 0 -16 6 -10 28 -22 15 -40 -15 -23 -2 -11 5 -6 -1 -8 -7 -27 5 -31 -8 -12 4 -4 9 0 5 -12 8 4 9 -2 7 -8 100 300 1 7 0 12 1 5 25 20 5 1 3 10 -1 6 15 25 -2 5 -2 12 1 11z">
    <title>New Hampshire</title>
  </path>
  <path style="stroke-width: 20;fill:#CCFFCC;stroke:#000000;"
    d="M3362 682l100 300 1 7 0 12 1 5 25 20 5 1 3 10 -1 6 15 25 3 -7 2 -18 3 -22 11 -22 8 -33 12 -13 2 -7 -7 -4 -6 -19 33 -30 5 3 6 15 4 3 4 -6 0 -14 3 -8 25 -4 10 -10 1 -11 4 -6 12 0 11 -6 4 -6 5 -20 -2 -17 16 -19 0 -11 7 0 18 3 9 -4 5 -10 6 -17 8 -1 12 -20 19 3 13 13 20 -35 15 -8 28 -24 6 -12 4 -4 8 1 13 -7 5 -14 -2 -13 -10 -5 -3 2 -6 -4 5 -12 4 -2 -2 -10 -10 -23 -14 -5 -8 0 -4 6 -12 2 -12 -4 -12 -45 5 -6 -2 -8 -4 -4 -8 0 -5 4 -19 -7 -12 0 -5 -5 -8 -26 -1 -6 -62 -195 -54 -33 -14 -2 -13 1 -6 8 -4 10 -6 0 -19 8 -27 24 -10 1 -10 -13 1 -19 -5 -8 -8 0 -20 8 -46 151 -1 23 8 10 0 17 -4 11 -8 7 -6 13 16 62 -7 20 0 15 -23 31 -4 11 8 19 0 3 -13 0 1 16 -3 9 -8 -1 -9 -4 -13 10z">
    <title>Maine</title>
  </path>
  <path style="stroke-width: 20;stroke:#000000;fill:#CCFFCC;"
    d="M2346 1755l-3 -2 -9 8 6 18 -19 17 25 12 -9 64 -7 16 0 13 4 10 1 21 -14 14 -7 3 -26 30 -2 6 -16 5 -11 -3 -11 12 -1 8 -12 11 -14 31 5 20 -15 19 -13 -21 -11 0 -13 42 1 21 -1 19 -10 7 -13 24 -18 2 3 22 0 15 -1 11 3 12 29 36 18 28 5 3 5 -1 16 6 3 5 5 2 9 6 10 0 5 3 -5 15 20 20 32 12 14 0 17 -12 1 -9 12 -7 11 10 6 3 11 -2 35 -14 5 -22 4 0 8 8 28 -26 11 5 23 -31 -7 -11 4 -21 23 -44 30 -116 6 -1 17 11 1 8 10 8 18 -4 11 -20 12 -44 10 -16 17 7 11 -26 10 -4 9 -13 10 -24 6 -5 2 -6 -6 -5 3 -35 3 -7 6 -3 63 40 10 3 3 -2 6 -34 0 0 -15 -32 -6 -3 -5 -14 -13 5 -10 -2 -10 -5 -45 15 -4 12 -17 6 -17 -3 -8 -10 -8 18 -10 5 -9 16 -13 4 -28 31 -8 4 -6 12 -21 -91 -137 27 -28 -156z">
    <title>West Virginia</title>
  </path>
  <path style="stroke-width: 20;stroke:#000000;fill:#FFFFCC;"
    d="M481 2658l631 -28 -3 8 13 9 6 16 -3 13 -19 15 -17 20 -2 12 95 -6 -4 8 3 9 -7 15 -17 18 -7 38 -19 23 4 24 -1 32 -5 1 -16 15 -2 10 -27 24 -10 27 2 28 -4 16 -26 16 -17 27 -8 8 0 22 -13 16 0 18 -9 23 -14 25 6 26 13 14 2 18 5 5 0 8 -8 6 -4 16 2 9 -428 12 -1 -94 -22 -5 -19 8 -6 -2 -22 -16 4 -313 -26 -194z">
    <title>Arkansas</title>
  </path>
  <g style="stroke-width: 20;fill:#CCCCCC;stroke:#000000;">
    <title>Hawaii</title>
    <path style="stroke-width: 20;stroke:#000000;fill:#FF99CC;"
      d="M-673 4625l17 67 0 33 50 33 16 -33 84 -50 -33 -66 -100 -50 0 50 -34 16z">
      <title>Hawaii</title>
    </path>
    <path style="stroke-width: 20;fill:#FF99CC;stroke:#000000;"
      d="M-722 4509l49 0 17 -34 -50 -16 -16 0 -17 -17 -17 17 17 33 17 17z">
      <title>Hawaii</title>
    </path>
    <path style="stroke-width: 20;stroke:#000000;fill:#CCCCCC;" d="M-773 4525l34 -16 0 16 -34 0z">
      <title>Hawaii</title>
    </path>
    <path style="stroke-width: 20;fill:#FF99CC;stroke:#000000;"
      d="M-786 4462c8,0 16,7 16,16 0,9 -8,17 -16,17 -10,0 -17,-8 -17,-17 0,-9 7,-16 17,-16z">
      <title>Hawaii</title>
    </path>
    <path style="stroke-width: 20;fill:#FF99CC;stroke:#000000;" d="M-856 4442l66 0 17 -33 -66 0 -17 33z">
      <title>Hawaii</title>
    </path>
    <path style="stroke-width: 20;stroke:#000000;fill:#FF99CC;"
      d="M-1205 4292l33 17 33 0 17 -33 -33 -17 -34 17 -16 16z">
      <title>Hawaii</title>
    </path>
    <path style="stroke-width: 20;fill:#FF99CC;stroke:#000000;" d="M-1272 4309l33 -33 0 -17 -33 33 0 17z">
      <title>Hawaii</title>
    </path>
    <path style="stroke-width: 20;stroke:#000000;fill:#FF99CC;" d="M-956 4409l51 0 0 -33 -34 -34 -50 17 33 50z">
      <title>Hawaii</title>
    </path>
  </g>
  <g style="stroke-width: 20;stroke:#000000;fill:#CCCCCC;">
    <title>Alaska</title>
    <path style="stroke-width: 20;stroke:#000000;fill:#CCCCCC;"
      d="M-2948 4098l51 50 49 83 67 17 0 100 -83 0 0 -67 -17 0 -166 67 50 50 0 66 66 34 100 17 66 -51 17 117 -66 17 -17 32 -33 17 -50 -33 -34 67 -83 83 50 83 -16 34 66 66 83 0 34 50 -17 33 17 50 66 -33 67 67 99 -51 -32 67 0 67 -134 100 -49 66 -51 0 -83 66 -83 17 -33 34 33 17 166 -68 100 -49 200 -134 150 -166 16 -33 -49 0 149 -217 34 -16 0 33 -50 34 -17 99 33 -16 -33 33 17 17 100 -67 49 -17 17 -49 -17 -34 100 -17 117 67 100 -33 49 17 67 0 183 83 34 33 50 66 99 67 34 33 117 67 115 -50 0 -66 -32 -67 -51 -17 -49 0 -67 -50 -67 -50 -133 -133 -33 17 -33 50 -34 33 -116 -67 0 -33 -100 33 -33 -166 -83 -366 -67 -250 -33 -117 -100 -49 -50 33 -167 -33 -50 17 -49 -17 0 -17 -151 -34 -16 34 -83 0 -67 50 -49 50 -17 50 -34 33 -66 0 -34 50z">
      <title>Alaska</title>
    </path>
    <path style="stroke-width: 20;stroke:#000000;fill:#CCCCCC;"
      d="M-3098 5504c1,-4 3,-7 1,-9 -7,-6 -22,-9 -24,-2 -3,13 18,23 30,19 8,-2 19,-15 13,-22 -5,-7 -10,8 -18,14 -2,0 -2,6 1,9">
      <title>Alaska</title>
    </path>
    <path style="stroke-width: 20;stroke:#000000;fill:#CCCCCC;"
      d="M-3130 5509c-17,3 -36,-4 -52,5 -8,4 -6,13 -4,19 -7,-4 -15,1 -20,7 -2,4 -1,9 -2,14 -1,5 -10,4 -10,11 4,-1 1,3 2,3 2,0 3,0 4,0 -1,0 -2,0 -2,1 5,0 12,0 16,-3 10,-10 23,-14 34,-22 6,-4 12,-10 18,-15 4,-3 11,-4 15,-6 4,-2 9,-7 6,-11 -2,-1 -2,-4 -6,-4 0,0 0,1 1,1z">
      <title>Alaska</title>
    </path>
    <path style="stroke-width: 20;stroke:#000000;fill:#CCCCCC;"
      d="M-3229 5565c4,-6 12,-18 4,-21 -14,-6 -27,8 -36,19 -2,2 -1,8 -3,12 -1,2 -4,6 -8,8 -3,1 -7,2 -12,3 -6,1 -8,7 -13,10 -3,2 -9,6 -7,8 3,4 10,2 14,0 7,-4 11,-11 17,-14 10,-4 19,-6 27,-12 8,-3 12,-10 19,-13 0,0 -1,0 -2,0z">
      <title>Alaska</title>
    </path>
    <path style="stroke-width: 20;fill:#CCCCCC;stroke:#000000;"
      d="M-3325 5615c-6,2 -15,-1 -16,7 8,0 16,2 21,-6 2,-3 -4,0 -3,-3 -1,1 -2,2 -2,2z">
      <title>Alaska</title>
    </path>
    <path style="stroke-width: 20;fill:#CCCCCC;stroke:#000000;"
      d="M-3352 5631c-1,-3 -7,-1 -9,2 -1,2 -1,5 0,5 6,-1 12,-2 9,-7z">
      <title>Alaska</title>
    </path>
    <path style="stroke-width: 20;fill:#CCCCCC;stroke:#000000;"
      d="M-3378 5646c-1,-1 -3,-1 -3,0 0,0 0,2 0,2 0,0 2,0 3,0 0,0 0,-2 0,-2z">
      <title>Alaska</title>
    </path>
    <path style="stroke-width: 20;fill:#CCCCCC;stroke:#000000;"
      d="M-3391 5651c-1,0 -2,0 -4,0 0,0 0,2 0,3 2,0 4,0 6,0 0,-1 -1,-3 -2,-3z">
      <title>Alaska</title>
    </path>
    <path style="stroke-width: 20;fill:#CCCCCC;stroke:#000000;"
      d="M-3421 5656c-4,0 -6,3 -8,2 0,1 0,2 0,2 6,1 13,1 20,0 0,0 0,-1 0,-2 -4,1 -8,-2 -12,-2z">
      <title>Alaska</title>
    </path>
    <path style="stroke-width: 20;fill:#CCCCCC;stroke:#000000;"
      d="M-3448 5650c5,-6 16,-6 14,4 -1,1 -4,1 -7,1 1,2 4,3 6,3 -2,3 -6,3 -10,5 -2,0 -3,3 -5,4 -5,4 -10,4 -15,4 2,-8 12,-11 15,-16 1,-1 7,-3 2,-5z">
      <title>Alaska</title>
    </path>
    <path style="stroke-width: 20;fill:#CCCCCC;stroke:#000000;"
      d="M-3488 5667c-4,-1 -3,-4 -4,-8 -3,-3 -8,-2 -12,0 -3,0 -3,4 -1,7 2,4 14,3 11,9 -1,3 -8,3 -7,6 1,3 6,6 9,4 3,-2 5,-2 8,-4 6,-3 4,-11 -4,-14z">
      <title>Alaska</title>
    </path>
    <path style="stroke-width: 20;fill:#CCCCCC;stroke:#000000;"
      d="M-3524 5671c0,-2 -4,-8 -3,-9 5,-3 9,-1 11,1 1,4 4,12 0,13 -11,4 -22,9 -34,10 -5,-11 20,-7 26,-15z">
      <title>Alaska</title>
    </path>
    <path style="stroke-width: 20;fill:#CCCCCC;stroke:#000000;"
      d="M-3565 5669c1,-6 -5,-10 -10,-8 -1,1 -4,3 -3,5 4,3 9,7 6,11 -1,2 -6,2 -8,4 -3,2 1,3 4,5 1,0 0,2 1,2 3,1 5,3 8,0 1,3 -1,4 -1,6 2,0 4,-1 5,-3 3,-5 0,-12 0,-16 -1,-4 9,-6 7,-10 0,-2 -6,-2 -9,-1 -1,0 0,3 0,5z">
      <title>Alaska</title>
    </path>
    <path style="stroke-width: 20;fill:#CCCCCC;stroke:#000000;"
      d="M-3592 5672c-1,0 -3,0 -3,0 -1,1 -1,3 0,3 0,0 2,0 3,0 0,0 0,-2 0,-3z">
      <title>Alaska</title>
    </path>
    <path style="stroke-width: 20;fill:#CCCCCC;stroke:#000000;"
      d="M-3608 5665c-2,-2 -7,-1 -10,3 -1,1 -1,5 1,4 5,0 12,-1 9,-7z">
      <title>Alaska</title>
    </path>
    <path style="stroke-width: 20;fill:#CCCCCC;stroke:#000000;"
      d="M-3619 5697c1,-2 4,-2 2,-2 -10,-7 -17,-19 -24,-27 12,14 -18,-24 -15,-1 1,4 11,8 13,11 5,6 6,9 10,13 6,4 14,4 14,6z">
      <title>Alaska</title>
    </path>
    <path style="stroke-width: 20;stroke:#000000;fill:#CCCCCC;"
      d="M-3675 5660c0,-1 -1,-1 -2,0 0,0 0,2 0,3 1,0 2,0 2,0 1,-1 1,-3 0,-3z">
      <title>Alaska</title>
    </path>
    <path style="stroke-width: 20;stroke:#000000;fill:#CCCCCC;"
      d="M-3708 5648c4,-6 9,-10 15,-15 6,8 -7,12 -10,18 0,1 4,4 3,5 -3,3 -7,6 -11,6 -3,-1 -5,-3 -6,-6 6,-1 4,-7 9,-9 0,1 0,1 0,1z">
      <title>Alaska</title>
    </path>
    <path style="stroke-width: 20;stroke:#000000;fill:#CCCCCC;"
      d="M-3851 5556c9,-5 19,-8 28,-15 1,10 -11,11 -7,20 0,1 -4,2 -5,1 -5,-6 -11,-3 -16,-6z">
      <title>Alaska</title>
    </path>
    <path style="stroke-width: 20;stroke:#000000;fill:#CCCCCC;"
      d="M-3884 5504c10,-8 23,-6 35,-5 1,0 0,1 0,2 7,-1 15,3 11,9 -4,4 -8,0 -15,-1 1,4 -1,7 -3,8 -2,2 -6,2 -9,0 -2,-1 -1,-5 -5,-8 0,0 -2,1 -2,0 -1,-1 0,-3 0,-5 -3,0 -3,8 -6,5 -1,-1 0,-4 -1,-5 -1,-1 -6,0 -5,0z">
      <title>Alaska</title>
    </path>
    <path style="stroke-width: 20;stroke:#000000;fill:#CCCCCC;"
      d="M-3771 5596c-1,0 -3,0 -3,0 0,0 0,2 0,3 0,0 2,0 3,0 0,-1 0,-3 0,-3z">
      <title>Alaska</title>
    </path>
  </g>
  <path style="fill-opacity:0.42;stroke-width: 20;fill:#CCCC00;stroke:#000000;"
    d="M-1543 2444l97 -705 -261 -41 27 -172 -390 -69 -170 877 0 1 697 109z">
    <title>Utah</title>
  </path>
  <desc />
  <text x="722.9035500196987" y="5244.366015847837"
    style="font-family:&apos;Arial&apos;;font-size:700;fill:#000000;stroke:none;"
    transform="matrix(1.0,0.0,0.0,1.0,-212.054529,272.641516)">USA map</text>
  <ellipse rx="17.06827309236951" ry="17.066062176165815" style="stroke-width:1.0;stroke:#000000;fill:#330033;"
    cx="-3101.506024096386" cy="747.1664507772023" transform="matrix(0.885771,0.0,0.0,0.865813,-326.24348,50.336928)">
    <title>Salem</title>
    <desc />
  </ellipse>
  <ellipse rx="7.51136539606" ry="8.136258456373469" style="fill:#330033;stroke:#000000;stroke-width:1.0;"
    cx="-3138.4133309004674" cy="757.3367492992024">
    <title>Corvallis</title>
    <desc />
  </ellipse>
  <ellipse rx="0.0" ry="0.0" style="fill:#330033;stroke:#000000;stroke-width:1.0;" cx="-3135.909542435114"
    cy="756.7108832640969" />
  <ellipse rx="20.656254839165058" ry="20.653579158486536" style="fill:#330033;stroke:#000000;stroke-width:1.0;"
    cx="-3021.361220145198" cy="594.6115801717333">
    <title>Portland</title>
    <desc />
  </ellipse>
  <iveo:paper top-margin="0.75 inch" width="8.5 inch" right-margin="0.3 inch" orientation="landscape"
    left-margin="0.75 inch" bottom-margin="0.3 inch" height="11.0 inch" name="Letter (Landscape)" />
</svg>